HIERARCHY
ROOT Hips
{
	OFFSET 0.000000 0.000000 0.000000
	CHANNELS 6 Xposition Yposition Zposition Xrotation Yrotation Zrotation
	JOINT LeftUpLeg_virtual
	{
		OFFSET 0.000000 0.000000 0.000000
		CHANNELS 3 Xrotation Yrotation Zrotation
		JOINT LeftUpLeg
		{
			OFFSET 15.427100 -6.655098 0.678600
			CHANNELS 3 Xrotation Yrotation Zrotation
			JOINT LeftLeg
			{
				OFFSET 4.081073 -39.591068 13.024000
				CHANNELS 3 Xrotation Yrotation Zrotation
				JOINT LeftFoot
				{
					OFFSET -4.081074 -37.707932 -15.979700
					CHANNELS 3 Xrotation Yrotation Zrotation
					JOINT LeftToeBase
					{
						OFFSET 5.346399 -15.068900 20.645000
						CHANNELS 3 Xrotation Yrotation Zrotation
						JOINT LeftToe_End
						{
							OFFSET 2.754700 0.931300 11.300900
							CHANNELS 3 Xrotation Yrotation Zrotation
							End Site
							{
								OFFSET 0 0 0
							}
						}
					}
				}
			}
		}
	}
	JOINT RightUpLeg_virtual
	{
		OFFSET 0.000000 0.000000 0.000000
		CHANNELS 3 Xrotation Yrotation Zrotation
		JOINT RightUpLeg
		{
			OFFSET -15.569500 -6.655098 0.678600
			CHANNELS 3 Xrotation Yrotation Zrotation
			JOINT RightLeg
			{
				OFFSET -4.081825 -39.591045 13.023800
				CHANNELS 3 Xrotation Yrotation Zrotation
				JOINT RightFoot
				{
					OFFSET 4.081824 -37.707954 -15.979600
					CHANNELS 3 Xrotation Yrotation Zrotation
					JOINT RightToeBase
					{
						OFFSET -5.346400 -15.068900 20.645000
						CHANNELS 3 Xrotation Yrotation Zrotation
						JOINT RightToe_End
						{
							OFFSET -2.754700 0.931300 11.300900
							CHANNELS 3 Xrotation Yrotation Zrotation
							End Site
							{
								OFFSET 0 0 0
							}
						}
					}
				}
			}
		}
	}
	JOINT Spine_virtual
	{
		OFFSET 0.000000 0.000000 0.000000
		CHANNELS 3 Xrotation Yrotation Zrotation
		JOINT Spine
		{
			OFFSET -0.279200 12.230698 -2.892100
			CHANNELS 3 Xrotation Yrotation Zrotation
			JOINT Spine1
			{
				OFFSET -0.232667 10.192268 -1.242267
				CHANNELS 3 Xrotation Yrotation Zrotation
				JOINT Spine1_split
				{
					OFFSET -0.232667 10.192268 -1.242267
					CHANNELS 3 Xrotation Yrotation Zrotation
					JOINT Spine2
					{
						OFFSET -0.232667 10.192268 -1.242267
						CHANNELS 3 Xrotation Yrotation Zrotation
						JOINT Neck_virtual
						{
							OFFSET 0.000000 0.000000 0.000000
							CHANNELS 3 Xrotation Yrotation Zrotation
							JOINT Neck
							{
								OFFSET -0.418800 17.814194 8.416900
								CHANNELS 3 Xrotation Yrotation Zrotation
								JOINT Head
								{
									OFFSET 0.000000 7.031097 3.806800
									CHANNELS 3 Xrotation Yrotation Zrotation
									JOINT HeadTop_End
									{
										OFFSET 0.000000 24.646606 12.978600
										CHANNELS 3 Xrotation Yrotation Zrotation
										End Site
										{
											OFFSET 0 0 0
										}
									}
								}
							}
						}
						JOINT LeftShoulder_virtual
						{
							OFFSET 0.000000 0.000000 0.000000
							CHANNELS 3 Xrotation Yrotation Zrotation
							JOINT LeftShoulder
							{
								OFFSET 8.476499 7.247704 -3.868750
								CHANNELS 3 Xrotation Yrotation Zrotation
								JOINT LeftShoulder_split
								{
									OFFSET 8.476499 7.247704 -3.868750
									CHANNELS 3 Xrotation Yrotation Zrotation
									JOINT LeftArm
									{
										OFFSET 9.308998 -2.777710 0.208600
										CHANNELS 3 Xrotation Yrotation Zrotation
										JOINT LeftForeArm
										{
											OFFSET 29.972298 0.000000 0.000000
											CHANNELS 3 Xrotation Yrotation Zrotation
											JOINT LeftHand
											{
												OFFSET 26.026505 0.000000 0.000000
												CHANNELS 3 Xrotation Yrotation Zrotation
												End Site
												{
													OFFSET 0 0 0
												}
											}
										}
									}
								}
							}
						}
						JOINT RightShoulder_virtual
						{
							OFFSET 0.000000 0.000000 0.000000
							CHANNELS 3 Xrotation Yrotation Zrotation
							JOINT RightShoulder
							{
								OFFSET -7.570500 7.247704 -3.868750
								CHANNELS 3 Xrotation Yrotation Zrotation
								JOINT RightShoulder_split
								{
									OFFSET -7.570500 7.247704 -3.868750
									CHANNELS 3 Xrotation Yrotation Zrotation
									JOINT RightArm
									{
										OFFSET -9.308998 -2.777710 0.208500
										CHANNELS 3 Xrotation Yrotation Zrotation
										JOINT RightForeArm
										{
											OFFSET -29.972300 0.000000 0.000000
											CHANNELS 3 Xrotation Yrotation Zrotation
											JOINT RightHand
											{
												OFFSET -26.026505 0.000000 0.000000
												CHANNELS 3 Xrotation Yrotation Zrotation
												End Site
												{
													OFFSET 0 0 0
												}
											}
										}
									}
								}
							}
						}
					}
				}
			}
		}
	}
}
MOTION
Frames: 8
Frame Time: 0.03333333
0.940790 76.173904 0.810684 0.000000 0.000000 0.000000 10.696682 -52.737581 10.018233 -59.269574 27.349893 41.760142 35.999284 -17.494017 1.659674 4.514981 -7.221001 -13.915616 -3.073259 -6.499870 -0.462137 0.000000 0.000000 0.000000 11.539568 -53.333614 10.733829 -21.492812 -3.311937 -32.136699 39.459686 9.722183 -8.864672 -25.789841 -6.124370 27.670252 1.561635 3.904035 3.012493 0.000000 0.000000 0.000000 12.049061 -46.448404 9.634719 6.841742 4.091443 -3.862494 6.647688 7.243807 -4.765376 0.299081 -2.215066 0.359234 0.000000 0.000000 0.000000 -3.312930 7.233609 -3.373284 -0.017694 13.961787 -1.562900 -2.149396 19.134097 -2.414072 0.000000 0.000000 0.000000 -4.273144 6.501311 -2.889353 -0.219597 -14.350634 0.536150 -2.340635 -2.249049 0.544998 -21.174432 1.433425 -48.621521 -20.084035 -12.962454 -9.358091 0.000000 0.000000 0.000000 -5.100527 6.617062 -2.560317 -0.820763 18.753854 -1.058357 -5.316002 -5.359176 6.995745 -1.179831 -22.496485 54.509325 -23.203956 43.558565 24.107667 0.000000 0.000000 0.000000 
1.506968 76.330574 0.991138 0.000000 0.000000 0.000000 10.969058 -52.865333 10.424189 -58.809957 26.485787 40.761640 36.055138 -17.759177 1.173923 4.941670 -6.270563 -13.952322 -1.657744 -6.391895 -1.107482 0.000000 0.000000 0.000000 11.672021 -53.916041 11.222884 -21.779733 -3.434812 -32.161646 39.434869 9.391580 -8.590379 -25.828323 -6.140871 26.088585 2.263288 3.880275 3.397904 0.000000 0.000000 0.000000 12.105917 -46.674934 9.643142 6.820511 4.085894 -4.065978 6.633653 7.240157 -4.910759 0.067543 -2.124829 0.443025 0.000000 0.000000 0.000000 -3.504864 7.225772 -3.428167 -0.100569 14.482929 -2.239156 -1.834763 19.666227 -2.922410 0.000000 0.000000 0.000000 -4.423445 6.525653 -2.969584 -0.350493 -13.914459 0.182180 -2.964799 -2.158259 0.589352 -20.396096 1.971057 -47.843812 -20.113603 -13.165114 -9.629427 0.000000 0.000000 0.000000 -4.998204 6.598805 -2.720082 -0.736281 18.729388 -0.575763 -6.959553 -4.406354 6.551579 -1.549442 -23.885281 54.139143 -23.318647 43.735795 24.592994 0.000000 0.000000 0.000000 
2.274851 76.717575 0.939754 0.000000 0.000000 0.000000 11.290123 -54.394281 11.135317 -57.870007 25.562179 40.490949 35.669925 -17.667879 0.449806 5.699476 -4.678963 -15.214035 0.304530 -6.238539 -1.749147 0.000000 0.000000 0.000000 11.780023 -55.885219 11.975913 -23.109180 -3.433852 -31.552216 38.983342 9.721029 -7.920791 -25.158068 -5.783983 24.245052 2.545108 3.888905 3.226402 0.000000 0.000000 0.000000 12.263825 -48.548957 10.064075 7.294995 3.879795 -4.231098 6.808261 7.175566 -5.150336 -0.096886 -2.170508 0.744999 0.000000 0.000000 0.000000 -3.523162 7.130658 -3.606808 -0.421695 15.181537 -3.164627 -1.530586 20.289698 -4.202267 0.000000 0.000000 0.000000 -4.445538 6.546703 -3.180507 -0.567056 -12.943475 -1.032196 -3.575992 -2.410104 0.562595 -19.833976 3.023359 -46.884539 -18.829742 -13.818886 -9.316934 0.000000 0.000000 0.000000 -4.738664 6.586964 -3.003377 -0.658863 18.186345 0.180769 -8.141608 -4.144976 5.831923 -2.619490 -23.670077 52.385748 -24.157810 45.061644 26.144999 0.000000 0.000000 0.000000 
3.042817 77.114014 0.602406 0.000000 0.000000 0.000000 11.828418 -57.497407 12.269053 -56.602095 25.091608 41.296461 34.872702 -16.998917 -0.470759 6.504387 -2.505174 -17.265342 1.590246 -6.050650 -2.019470 0.000000 0.000000 0.000000 12.169210 -59.400523 13.157038 -25.628567 -3.308975 -30.164274 38.740403 10.761623 -6.889889 -23.329073 -4.910090 22.696083 1.842712 3.858493 2.654910 0.000000 0.000000 0.000000 12.577111 -52.135794 10.968415 8.066496 3.444732 -4.317836 7.122724 6.973204 -5.440810 -0.269512 -2.220728 1.383651 0.000000 0.000000 0.000000 -3.323585 6.931582 -3.882238 -0.862472 16.112718 -4.335004 -1.355340 20.899185 -6.030347 0.000000 0.000000 0.000000 -4.328936 6.495580 -3.511310 -0.781153 -11.561271 -2.870383 -3.831936 -2.813275 0.364061 -19.533033 4.288726 -46.006884 -16.303086 -14.143631 -8.372953 0.000000 0.000000 0.000000 -4.427688 6.485884 -3.373164 -0.557945 17.058377 1.019679 -8.535735 -4.246919 5.170911 -3.832659 -21.368522 49.372016 -25.584517 47.553748 28.639603 0.000000 0.000000 0.000000 
3.656800 77.348099 -0.117741 0.000000 0.000000 0.000000 13.220996 -62.125960 14.256204 -55.115986 25.531158 43.265198 34.135841 -15.278751 -1.438576 6.479514 0.474089 -19.047974 1.874391 -5.827943 -1.744406 0.000000 0.000000 0.000000 13.167035 -64.175085 14.926897 -29.001816 -3.208818 -27.781752 38.651136 12.454557 -5.693715 -20.624485 -3.569613 21.526069 0.219245 3.746051 1.898026 0.000000 0.000000 0.000000 13.488019 -57.138682 12.605056 9.033195 2.770858 -4.258763 7.550673 6.566867 -5.744442 -0.447747 -2.414642 1.963715 0.000000 0.000000 0.000000 -2.967091 6.588663 -4.189919 -1.281602 17.250804 -5.628712 -1.374606 21.311505 -8.126903 0.000000 0.000000 0.000000 -4.093727 6.275200 -3.923654 -0.919206 -9.918611 -4.849447 -3.782423 -3.138211 -0.028130 -19.233849 5.544102 -45.323018 -12.980332 -13.859713 -7.042915 0.000000 0.000000 0.000000 -4.116487 6.198240 -3.785412 -0.436218 15.371387 1.716875 -7.997235 -4.383569 4.511304 -4.635982 -17.107732 45.507484 -27.422957 50.933325 31.851228 0.000000 0.000000 0.000000 
4.100621 77.317650 -0.908894 0.000000 0.000000 0.000000 16.208029 -67.910126 17.686186 -53.471878 27.017968 46.070965 33.774572 -12.330397 -2.221541 4.780077 4.253063 -19.703740 1.452785 -5.520712 -1.118332 0.000000 0.000000 0.000000 15.636376 -69.818713 17.934574 -32.670065 -3.138777 -24.375497 38.542252 14.535228 -4.538976 -18.125019 -1.923840 20.230704 -1.315907 3.553101 1.222025 0.000000 0.000000 0.000000 15.573485 -63.344301 15.426054 10.111018 1.868230 -4.044399 8.034422 5.915564 -6.015265 -0.559675 -2.869902 2.092714 0.000000 0.000000 0.000000 -2.555889 6.021388 -4.459230 -1.600301 18.528630 -6.868921 -1.679052 21.421025 -10.188312 0.000000 0.000000 0.000000 -3.736606 5.774966 -4.361412 -0.943576 -8.120167 -6.475043 -3.334076 -2.951921 -0.448234 -18.599445 6.782368 -44.899891 -9.393451 -13.158617 -5.683917 0.000000 0.000000 0.000000 -3.778417 5.623110 -4.201094 -0.286959 13.216249 1.967440 -6.746062 -4.420748 3.901948 -4.842740 -11.401411 41.108771 -29.551725 54.692006 35.550305 0.000000 0.000000 0.000000 
4.317574 77.134827 -1.955425 0.000000 0.000000 0.000000 22.571067 -74.022667 24.318052 -52.069718 29.264881 49.418577 33.879801 -8.493262 -2.610053 1.073864 8.294361 -19.259018 0.868032 -5.060097 -0.466708 0.000000 0.000000 0.000000 21.370812 -75.726553 23.965886 -35.932795 -3.140788 -20.109272 38.318799 16.607354 -3.417262 -16.664926 -0.088336 17.987079 -1.340901 3.324850 0.844411 0.000000 0.000000 0.000000 20.330741 -69.931862 20.664010 11.271864 0.816983 -3.697578 8.558234 5.000055 -6.197572 -0.669152 -3.205554 1.842433 0.000000 0.000000 0.000000 -2.134253 5.215039 -4.647569 -1.604143 19.813996 -7.905825 -2.376342 21.366922 -12.049312 0.000000 0.000000 0.000000 -3.168855 4.944575 -4.738360 -0.839128 -6.156158 -7.483728 -2.745244 -2.323238 -1.018471 -17.058375 8.054130 -44.725602 -5.991101 -12.644527 -4.628542 0.000000 0.000000 0.000000 -3.411300 4.732586 -4.559238 -0.136464 10.595007 1.687308 -5.155233 -4.403890 3.200088 -4.730279 -5.224197 36.361724 -32.631973 58.643226 40.154580 0.000000 0.000000 0.000000 
4.287251 76.936279 -3.002918 0.000000 0.000000 0.000000 36.758313 -79.363752 38.574463 -51.209149 31.698307 52.942439 34.312552 -4.333396 -2.524491 -3.885672 11.563992 -18.367033 -0.100104 -4.413769 0.154614 0.000000 0.000000 0.000000 35.308974 -80.892498 38.002370 -38.607969 -3.025613 -15.351178 37.826523 18.427282 -2.267710 -16.046104 1.835884 15.029490 -0.004007 3.060018 0.811194 0.000000 0.000000 0.000000 30.967965 -75.692293 31.486267 12.438738 -0.364572 -3.333898 9.126627 3.839585 -6.296828 -0.661932 -3.251987 1.432040 0.000000 0.000000 0.000000 -1.693020 4.133693 -4.748440 -1.053909 20.866218 -8.554034 -3.363800 21.396580 -13.686320 0.000000 0.000000 0.000000 -2.352767 3.831309 -4.999953 -0.651618 -4.145237 -7.731503 -2.044194 -1.748421 -1.348292 -14.332372 9.292606 -44.729953 -3.041727 -13.649238 -4.118800 0.000000 0.000000 0.000000 -2.918101 3.566381 -4.831326 -0.019423 7.812244 0.867046 -3.667762 -4.393748 2.636453 -4.694253 0.182413 31.441140 -38.223453 62.759432 47.039851 0.000000 0.000000 0.000000 
